<?xml version="1.0" encoding="utf-8"?>
<svg version="1.1" id="Слой_1" xmlns="http://www.w3.org/2000/svg" xmlns:xlink="http://www.w3.org/1999/xlink" x="0px" y="0px" viewBox="0 0 60 60" style="enable-background:new 0 0 60 60;" xml:space="preserve">
<rect fill="#E5E5E5" width="60" height="60"/>
<g>
  <path fill="#D22856" d="M35.95,24.8c1.2-1,0.9-1.8-0.7-1.8h-10.5c-1.5,0-1.8,0.8-0.6,1.8l3.7,3.1c1.2,1,3.2,1,4.4,0L35.95,24.8z"/>
  <path fill="#D22856" d="M32.95,30c-1.2,1-2.2,1.8-2.2,1.8l0,0c-0.1,0.1-0.2,0.2-0.3,0.2h-0.1c-0.1,0.1-0.2,0.1-0.3,0.1l0,0l0,0l0,0l0,0c-0.1,0-0.2,0-0.3-0.1h-0.1c-0.1,0-0.2-0.1-0.3-0.1l0,0c0,0-1-0.8-2.2-1.8l-3.9-3.3c-1.2-1-2.2-0.5-2.2,1v6.3c0,1.6,1.3,2.9,2.8,2.9h12.3c1.6,0,2.8-1.3,2.8-2.8v-6.4c0-1.6-1-2-2.2-1L32.95,30z"/>
</g>
</svg>
