<?xml version="1.0" encoding="utf-8"?>
<svg version="1.1" id="Слой_1" xmlns="http://www.w3.org/2000/svg" xmlns:xlink="http://www.w3.org/1999/xlink" x="0px" y="0px" viewBox="0 0 60 60" style="enable-background:new 0 0 60 60;" xml:space="preserve">
<rect class="st0" fill="#E5E5E5" width="60" height="60"/>
<path class="st1" fill="#D22856" d="M30,20.15c-3.51,0-7.02,0.63-8.3,1.88c-1.06,1.04-1.41,2.87-1.53,4.03c0,0-0.02,0.11-0.02,0.17c0,0.45,0.37,0.82,0.82,0.82c0.05,0,2.03-0.16,3.22-0.26c0.03,0,0.06-0.01,0.09-0.02c0.44-0.01,0.8-0.37,0.8-0.82l0-1.62c0-0.5,0.41-0.9,0.91-0.9h8.03c0.5,0,0.91,0.4,0.91,0.9l0,1.62c0,0.45,0.36,0.81,0.8,0.82c0.03,0.01,0.06,0.01,0.08,0.02c1.19,0.1,3.16,0.26,3.22,0.26c0.45,0,0.82-0.37,0.82-0.82c0-0.05-0.02-0.17-0.02-0.17c-0.12-1.16-0.47-2.99-1.53-4.03C37.02,20.78,33.51,20.15,30,20.15z M30,30.82c-0.91,0-1.64,0.73-1.64,1.64c0,0.91,0.73,1.64,1.64,1.64c0.91,0,1.64-0.73,1.64-1.64C31.64,31.56,30.91,30.82,30,30.82z M28.77,27.13V26.1c0-0.57-0.46-1.03-1.02-1.03c-0.57,0-1.02,0.46-1.02,1.03v1.02l-5.54,5.91c-0.38,0.38-0.62,0.89-0.62,1.47v1.65c0,0.91,0.73,1.64,1.64,1.64h0.41v1.02c0,0.57,0.46,1.03,1.03,1.03c0.57,0,1.02-0.46,1.02-1.03V37.8h10.67v1.02c0,0.57,0.46,1.03,1.02,1.03c0.57,0,1.03-0.46,1.03-1.03V37.8h0.41c0.9,0,1.64-0.74,1.64-1.64v-1.65c0-0.58-0.24-1.09-0.62-1.47l-5.54-5.91V26.1c0-0.57-0.46-1.03-1.02-1.03c-0.57,0-1.03,0.46-1.03,1.03v1.02C31.23,27.13,28.77,27.13,28.77,27.13z M30,29.18c1.81,0,3.28,1.47,3.28,3.28s-1.47,3.28-3.28,3.28c-1.81,0-3.28-1.47-3.28-3.28S28.19,29.18,30,29.18z"/>
</svg>
